<svg id="图层_1" data-name="图层 1" xmlns="http://www.w3.org/2000/svg" viewBox="0 0 112 146"><defs><style>.cls-1{fill:#2d1817;}.cls-2{fill:#db5d84;}.cls-3{fill:#ed91b2;}.cls-4{fill:#ffd7e9;}.cls-5{fill:#ffd0b4;}.cls-6{fill:#ffe2d4;}.cls-7{fill:#f57272;}.cls-8{fill:#d1b6b6;}.cls-9{fill:#fcd3c4;}.cls-10{fill:#423f43;}</style></defs><title>Girl</title><path class="cls-1" d="M99.4,51.61c2.5,34-19.34,43-44.62,43S8.53,81.9,9,51.52C9,26.24,28.62.33,53.9.33,61.7.33,68,3.4,74.22,8.65,99,13.58,99.4,34.13,99.4,51.61Z"/><path class="cls-2" d="M93.55,114.67l-37-19.3-.26.14-.27-.14-37,19.3A19,19,0,0,0,9.62,131.1v14.68H103V131.1A19,19,0,0,0,93.55,114.67Z"/><rect class="cls-3" x="72.43" y="130.43" width="17.71" height="8.21" rx="2.36" ry="2.36"/><polygon class="cls-3" points="29.96 145.78 45.3 145.78 91.88 113.76 84.22 109.76 29.96 145.78"/><circle class="cls-4" cx="56.32" cy="112.06" r="4"/><path class="cls-5" d="M74.64,104.79l-4.76-2.48a4,4,0,0,1-2.15-3.54V88.28H44.9V98.77a4,4,0,0,1-2.15,3.54L38,104.79Z"/><path class="cls-4" d="M68.5,96.16,78,106.52l-8.93,6.12a4,4,0,0,1-4.88-.27L56.87,106a1.5,1.5,0,0,1,.21-2.33Z"/><path class="cls-4" d="M44.13,96.16l-9.48,10.36,8.93,6.12a4,4,0,0,0,4.88-.27l7.3-6.33a1.5,1.5,0,0,0-.21-2.33Z"/><path class="cls-6" d="M91.66,55.79C92.1,34.2,77,16.38,57.92,16c-.54,0-1.07,0-1.6,0s-1.07,0-1.6,0C35.64,16.38,20.53,34.2,21,55.79c-.3,25.77,15.85,38.73,35.32,38.37h0C75.8,94.52,92,81.56,91.66,55.79Z"/><path class="cls-7" d="M50.27,75.09c0,4.06,2.73,7.34,6,7.34s6-3.28,6-7.34Z"/><path class="cls-8" d="M56.32,65.65a2.51,2.51,0,0,0-2.52,2.51,11.3,11.3,0,0,1,2.48-.79,12,12,0,0,1,2.55.79A2.51,2.51,0,0,0,56.32,65.65Z"/><ellipse class="cls-9" cx="36.02" cy="74.52" rx="6" ry="4"/><ellipse class="cls-9" cx="76.61" cy="74.52" rx="6" ry="4"/><circle class="cls-10" cx="39.62" cy="62.22" r="3.75"/><path class="cls-10" d="M45.56,54.85a1.14,1.14,0,0,0,.71-1s0-.06,0-.08a.48.48,0,0,0-.07-.23,1.82,1.82,0,0,0-1-.91l0,0c-9.66-1.52-12.5,2.07-12.44,2.07,2.87.17,12.12.31,12.29.31h0a1.13,1.13,0,0,0,.45-.09Z"/><circle class="cls-10" cx="73.01" cy="62.22" r="3.75"/><path class="cls-10" d="M67.07,54.85a1.16,1.16,0,0,1-.71-1s0-.06,0-.08a.46.46,0,0,1,.06-.23,1.86,1.86,0,0,1,1-.91l0,0c9.67-1.52,12.5,2.07,12.44,2.07C77,54.82,67.75,55,67.58,55h0a1.18,1.18,0,0,1-.46-.09Z"/><path class="cls-1" d="M25.09,71.57s-9.15-33.3,15.23-42.42l.62,2.25s4.75-1.88,7-4.75a12.5,12.5,0,0,1,0,5.62s6.63-1.87,9-4.75c0,0,1.13.75,1,3.38a68,68,0,0,0,13.13-8.5S92.45,30.6,88.37,69L97,55.23s-3.5-22.92-12.84-35.17S43,7.06,33.32,14.4,15.82,39.23,15.74,55.81,25.09,71.57,25.09,71.57Z"/><path class="cls-3" d="M36.58,29.35a.9.9,0,0,0-.78-1.42l-2.55.12a.88.88,0,0,1-.75-.35l-1.54-2a.91.91,0,0,0-1.59.31l-.68,2.46a.89.89,0,0,1-.57.61l-2.41.84a.9.9,0,0,0-.2,1.6l2.13,1.4a.91.91,0,0,1,.41.73l.05,2.55a.9.9,0,0,0,1.46.69l2-1.59a.89.89,0,0,1,.83-.16l2.44.74a.9.9,0,0,0,1.1-1.18L35,32.27a.91.91,0,0,1,.11-.83Z"/><path class="cls-3" d="M44.76,23.37a.78.78,0,0,0-.8-1.16l-2.2.32a.79.79,0,0,1-.69-.24l-1.51-1.62a.78.78,0,0,0-1.35.4l-.37,2.19a.77.77,0,0,1-.45.58l-2,.94a.79.79,0,0,0,0,1.41l2,1a.78.78,0,0,1,.41.6L38,30a.79.79,0,0,0,1.33.47l1.59-1.56a.79.79,0,0,1,.7-.21l2.18.42A.79.79,0,0,0,44.66,28l-1-2a.79.79,0,0,1,0-.73Z"/></svg>