<!-- Generated by IcoMoon.io -->
<svg version="1.1" xmlns="http://www.w3.org/2000/svg" width="1024" height="1024" viewBox="0 0 1024 1024">
<title></title>
<g id="icomoon-ignore">
</g>
<path fill="#2ea25b" d="M136.533 0c-12.8 0-26.453 5.12-35.84 15.36s-15.36 23.040-15.36 35.84v921.6c0 12.8 5.12 26.453 15.36 35.84 10.24 10.24 23.040 15.36 35.84 15.36h750.933c12.8 0 26.453-5.12 35.84-15.36 10.24-10.24 15.36-23.040 15.36-35.84v-682.667l-290.133-290.133h-512z"></path>
<path fill="#bdebd7" d="M938.667 290.133h-238.933c-12.8 0-26.453-5.12-35.84-15.36-10.24-9.387-15.36-23.040-15.36-35.84v-238.933l290.133 290.133z"></path>
<path fill="#fff" d="M472.747 539.307l-116.053-162.133h80.213l75.947 116.053 79.36-116.053h77.653l-118.613 162.133 124.587 172.373h-81.067l-83.627-122.88-83.627 123.733h-79.36l124.587-173.227z"></path>
</svg>
